HIERARCHY
ROOT Hips
{
 OFFSET 0.000000 0.000000 0.000000
 CHANNELS 6 Xposition Yposition Zposition Yrotation Xrotation Zrotation
 JOINT Chest
 {
  OFFSET 0.000000 13.173100 -0.061900
  CHANNELS 3 Yrotation Xrotation Zrotation
  JOINT Chest2
  {
   OFFSET 0.000000 8.040800 0.126200
   CHANNELS 3 Yrotation Xrotation Zrotation
   JOINT Chest3
   {
    OFFSET 0.000000 7.994400 0.000000
    CHANNELS 3 Yrotation Xrotation Zrotation
    JOINT Chest4
    {
     OFFSET 0.000000 7.986200 0.000000
     CHANNELS 3 Yrotation Xrotation Zrotation
     JOINT Neck
     {
      OFFSET 0.000000 12.259400 0.000000
      CHANNELS 3 Yrotation Xrotation Zrotation
      JOINT Head
      {
       OFFSET 0.000000 7.518700 0.267100
       CHANNELS 3 Yrotation Xrotation Zrotation
       End Site
       {
        OFFSET 0.000000 13.617700 0.141000
       }
      }
     }
     JOINT RightCollar
     {
      OFFSET -2.983800 8.314300 0.000000
      CHANNELS 3 Yrotation Xrotation Zrotation
      JOINT RightShoulder
      {
       OFFSET -16.133400 0.000000 0.000000
       CHANNELS 3 Yrotation Xrotation Zrotation
       JOINT RightElbow
       {
        OFFSET 0.000000 -29.822100 0.000000
        CHANNELS 3 Yrotation Xrotation Zrotation
        JOINT RightWrist
        {
         OFFSET 0.000000 -24.437700 0.010900
         CHANNELS 3 Yrotation Xrotation Zrotation
         End Site
         {
          OFFSET 0.000000 -18.312300 0.000000
         }
        }
       }
      }
     }
     JOINT LeftCollar
     {
      OFFSET 2.983800 8.314300 0.000000
      CHANNELS 3 Yrotation Xrotation Zrotation
      JOINT LeftShoulder
      {
       OFFSET 16.133400 0.000000 0.000000
       CHANNELS 3 Yrotation Xrotation Zrotation
       JOINT LeftElbow
       {
        OFFSET 0.000000 -29.822100 0.000000
        CHANNELS 3 Yrotation Xrotation Zrotation
        JOINT LeftWrist
        {
         OFFSET 0.000000 -24.437700 0.010900
         CHANNELS 3 Yrotation Xrotation Zrotation
         End Site
         {
          OFFSET 0.000000 -18.312300 0.000000
         }
        }
       }
      }
     }
    }
   }
  }
 }
 JOINT RightHip
 {
  OFFSET -11.206700 0.306200 0.030900
  CHANNELS 3 Yrotation Xrotation Zrotation
  JOINT RightKnee
  {
   OFFSET 0.000000 -57.334900 0.009400
   CHANNELS 3 Yrotation Xrotation Zrotation
   JOINT RightAnkle
   {
    OFFSET 0.000000 -43.376200 0.036600
    CHANNELS 3 Yrotation Xrotation Zrotation
    JOINT RightToe
    {
     OFFSET 0.000000 -10.035500 18.363100
     CHANNELS 3 Yrotation Xrotation Zrotation
     End Site
     {
      OFFSET 0.000000 -1.618500 7.239000
     }
    }
   }
  }
 }
 JOINT LeftHip
 {
  OFFSET 11.206700 0.306200 0.030900
  CHANNELS 3 Yrotation Xrotation Zrotation
  JOINT LeftKnee
  {
   OFFSET 0.000000 -57.334900 0.009400
   CHANNELS 3 Yrotation Xrotation Zrotation
   JOINT LeftAnkle
   {
    OFFSET 0.000000 -43.376200 0.036600
    CHANNELS 3 Yrotation Xrotation Zrotation
    JOINT LeftToe
    {
     OFFSET 0.000000 -10.035500 18.363100
     CHANNELS 3 Yrotation Xrotation Zrotation
     End Site
     {
      OFFSET 0.000000 -1.618500 7.239000
     }
    }
   }
  }
 }
}
MOTION
Frames: 8
Frame Time: 0.008333
-118.780446 62.590686 97.974144 -170.735193 -36.870865 -9.650376 -3.575890 13.258908 1.895620 -2.096652 7.538920 1.189438 -2.601770 9.429941 1.446252 -2.096721 7.538870 1.189406 1.906141 21.212000 0.070390 2.012835 -3.152644 -0.359644 5.723519 -2.350028 -1.709485 1.631551 -19.485883 1.430846 61.177536 -29.611292 -37.361250 10.893311 8.931252 -19.428866 -11.461808 -2.171162 -5.564529 -7.571797 -18.353038 2.507990 -52.520761 -23.716265 43.072892 -0.103095 -5.968109 3.517898 -18.901621 -21.570700 1.409243 3.106900 82.359418 0.492105 0.985662 -17.446531 -0.372112 0.016187 -0.742755 -0.124512 -8.595587 -41.555195 1.106777 175.240572 70.285738 173.911802 -0.945461 -27.111360 1.913632 -0.004643 0.034868 0.001100
-118.777519 62.559703 97.991497 -170.757294 -36.799136 -9.609758 -3.555839 13.233917 1.899071 -2.086854 7.542746 1.194271 -2.589334 9.434702 1.452529 -2.086873 7.542674 1.194256 1.895801 21.210886 0.068329 2.002111 -3.154157 -0.359449 5.713664 -2.363846 -1.722735 1.617749 -19.512563 1.408512 61.038342 -29.495102 -37.174725 10.891589 8.908656 -19.474140 -11.441496 -2.166297 -5.554130 -7.542866 -18.294829 2.480478 -52.600424 -23.816163 43.192770 -0.122597 -5.999049 3.491722 -18.928144 -21.525969 1.385174 3.097019 82.309308 0.486512 0.941445 -17.420024 -0.323936 0.010592 -0.680244 -0.141481 -8.604697 -41.651289 1.121468 175.328094 70.294786 173.962494 -0.944676 -27.081356 1.934046 -0.006217 0.032035 -0.000641
-118.772461 62.530458 98.004953 -170.760860 -36.741430 -9.594601 -3.540070 13.230307 1.917879 -2.076745 7.546382 1.199725 -2.576505 9.439234 1.459573 -2.076747 7.546371 1.199717 1.883871 21.206074 0.067466 1.997984 -3.143482 -0.357810 5.701750 -2.383266 -1.734740 1.605039 -19.533645 1.388498 60.891673 -29.373484 -36.984141 10.887068 8.875808 -19.531686 -11.426062 -2.161206 -5.545848 -7.547555 -18.266548 2.460478 -52.646450 -23.897452 43.296778 -0.142432 -6.030314 3.464070 -18.970383 -21.475916 1.360959 3.117382 82.279522 0.537431 0.918505 -17.407076 -0.317216 0.006118 -0.621634 -0.145432 -8.640787 -41.730379 1.151827 175.399965 70.295333 174.003692 -0.947401 -27.057135 1.943875 -0.006169 0.028607 -0.000738
-118.768038 62.504698 98.012775 -170.747981 -36.707751 -9.592444 -3.526879 13.258070 1.939141 -2.066771 7.549049 1.205951 -2.563886 9.442562 1.467500 -2.066781 7.549077 1.205932 1.842878 21.164751 0.059468 2.010614 -3.119847 -0.353930 5.664142 -2.431664 -1.749890 1.598733 -19.543004 1.378506 60.739848 -29.242082 -36.770097 10.875971 8.827928 -19.594418 -11.429048 -2.168365 -5.539647 -7.546439 -18.245450 2.446015 -52.686174 -23.971068 43.390638 -0.163249 -6.061646 3.433438 -19.016190 -21.388246 1.310457 3.082158 82.256475 0.582394 0.944145 -17.507586 -0.395875 0.037718 -0.546811 -0.134775 -8.717890 -41.785306 1.208215 175.496363 70.291385 174.043243 -0.962640 -27.022841 1.957666 -0.002198 0.013321 0.001188
-118.771023 62.473439 98.026843 -170.732609 -36.636174 -9.556128 -3.521118 13.253714 1.928682 -2.083793 7.513578 1.198617 -2.525938 9.482715 1.485615 -2.057758 7.550688 1.212861 1.843275 21.169411 0.066123 1.983126 -3.149606 -0.348021 5.663633 -2.447735 -1.752561 1.583579 -19.558239 1.349314 60.574986 -29.117511 -36.592456 10.861131 8.767496 -19.659336 -11.433065 -2.176351 -5.535871 -7.542303 -18.220223 2.434289 -52.747097 -24.045091 43.488271 -0.180763 -6.093898 3.406881 -19.047565 -21.324591 1.222564 3.042708 82.233637 0.654949 0.998723 -17.806330 -0.497689 0.060953 -0.299922 -0.128857 -8.737361 -41.879948 1.188028 175.513766 70.298449 174.035197 -0.978465 -26.998562 1.966496 0.000761 0.017008 0.004261
-118.772803 62.447465 98.035433 -170.720601 -36.589858 -9.526849 -3.511630 13.261399 1.920006 -2.050274 7.553510 1.219417 -2.528514 9.465331 1.490743 -2.050145 7.551344 1.220442 1.844650 21.172047 0.073268 1.954398 -3.184076 -0.342806 5.663220 -2.465629 -1.751655 1.568512 -19.570184 1.315392 60.426158 -28.989393 -36.444071 10.846147 8.707974 -19.739610 -11.437040 -2.185817 -5.536077 -7.534440 -18.190891 2.424833 -52.831436 -24.128120 43.607885 -0.200522 -6.108574 3.365052 -19.057106 -21.230208 1.132517 3.434705 82.211963 1.178710 1.025695 -18.184219 -0.615603 0.013107 0.006355 -0.114941 -8.746759 -41.942791 1.166913 175.527448 70.302863 174.032918 -0.989563 -26.980159 1.971814 0.002303 0.017925 0.005017
-118.773382 62.417636 98.051454 -170.694986 -36.496001 -9.504721 -3.542536 13.188649 1.896249 -1.986197 7.638471 1.255184 -2.533815 9.444748 1.496273 -2.043111 7.550721 1.228406 1.830650 21.155832 0.074975 1.913516 -3.230947 -0.339676 5.648047 -2.497731 -1.752899 1.554675 -19.579124 1.287369 60.316766 -28.848738 -36.330838 10.835019 8.666668 -19.848362 -11.443114 -2.192788 -5.539285 -7.523088 -18.163061 2.415840 -52.938786 -24.216038 43.750662 -0.214291 -6.115247 3.311867 -19.084995 -21.211897 1.071797 4.564136 82.211537 2.440667 0.978804 -18.535796 -0.786596 -0.017770 0.183343 -0.059900 -8.771300 -42.054661 1.146863 175.530358 70.310989 174.029417 -0.995916 -26.968184 1.966965 0.002375 0.033188 0.009313
-118.774986 62.386817 98.071819 -170.663876 -36.374731 -9.477223 -3.539646 13.153620 1.897457 -1.972782 7.643455 1.267927 -2.523056 9.442620 1.506165 -2.034620 7.548963 1.236162 1.813251 21.139013 0.077919 1.867748 -3.280811 -0.334931 5.623584 -2.531032 -1.751516 1.540226 -19.586217 1.261068 60.253490 -28.704611 -36.275488 10.824346 8.652013 -19.978745 -11.456036 -2.195640 -5.541626 -7.508914 -18.138981 2.406947 -53.073034 -24.296506 43.898780 -0.220788 -6.133612 3.269478 -19.112954 -21.249417 1.040829 5.873835 82.222173 3.868944 0.898182 -18.854503 -0.988565 -0.003989 0.302018 0.004044 -8.793786 -42.200291 1.110412 175.440119 70.328627 173.947573 -1.022387 -26.933894 1.958753 0.002988 0.044255 0.009805
